<svg width="618" height="152" viewBox="0 0 618 152" fill="none" xmlns="http://www.w3.org/2000/svg">
<path d="M32 44C38.6274 44 44 38.6274 44 32C44 25.3726 38.6274 20 32 20C25.3726 20 20 25.3726 20 32C20 38.6274 25.3726 44 32 44Z" fill="#004F1F" fill-opacity="0.2"/>
<path d="M93.5557 44C100.183 44 105.556 38.6274 105.556 32C105.556 25.3726 100.183 20 93.5557 20C86.9282 20 81.5557 25.3726 81.5557 32C81.5557 38.6274 86.9282 44 93.5557 44Z" fill="#004F1F" fill-opacity="0.2"/>
<path d="M155.111 44C161.738 44 167.111 38.6274 167.111 32C167.111 25.3726 161.738 20 155.111 20C148.483 20 143.111 25.3726 143.111 32C143.111 38.6274 148.483 44 155.111 44Z" fill="#004F1F" fill-opacity="0.2"/>
<path d="M216.667 44C223.294 44 228.667 38.6274 228.667 32C228.667 25.3726 223.294 20 216.667 20C210.04 20 204.667 25.3726 204.667 32C204.667 38.6274 210.04 44 216.667 44Z" fill="#004F1F" fill-opacity="0.2"/>
<path d="M278.222 44C284.85 44 290.222 38.6274 290.222 32C290.222 25.3726 284.85 20 278.222 20C271.595 20 266.222 25.3726 266.222 32C266.222 38.6274 271.595 44 278.222 44Z" fill="#004F1F" fill-opacity="0.2"/>
<path d="M339.778 44C346.405 44 351.778 38.6274 351.778 32C351.778 25.3726 346.405 20 339.778 20C333.15 20 327.778 25.3726 327.778 32C327.778 38.6274 333.15 44 339.778 44Z" fill="#004F1F" fill-opacity="0.2"/>
<path d="M401.333 44C407.96 44 413.333 38.6274 413.333 32C413.333 25.3726 407.96 20 401.333 20C394.706 20 389.333 25.3726 389.333 32C389.333 38.6274 394.706 44 401.333 44Z" fill="#004F1F" fill-opacity="0.2"/>
<path d="M462.889 44C469.517 44 474.889 38.6274 474.889 32C474.889 25.3726 469.517 20 462.889 20C456.262 20 450.889 25.3726 450.889 32C450.889 38.6274 456.262 44 462.889 44Z" fill="#004F1F" fill-opacity="0.2"/>
<path d="M524.444 44C531.071 44 536.444 38.6274 536.444 32C536.444 25.3726 531.071 20 524.444 20C517.816 20 512.444 25.3726 512.444 32C512.444 38.6274 517.816 44 524.444 44Z" fill="#004F1F" fill-opacity="0.2"/>
<path d="M586 44C592.627 44 598 38.6274 598 32C598 25.3726 592.627 20 586 20C579.373 20 574 25.3726 574 32C574 38.6274 579.373 44 586 44Z" fill="#004F1F" fill-opacity="0.2"/>
<path d="M32 88C38.6274 88 44 82.6274 44 76C44 69.3726 38.6274 64 32 64C25.3726 64 20 69.3726 20 76C20 82.6274 25.3726 88 32 88Z" fill="#004F1F" fill-opacity="0.2"/>
<path d="M93.5557 88C100.183 88 105.556 82.6274 105.556 76C105.556 69.3726 100.183 64 93.5557 64C86.9282 64 81.5557 69.3726 81.5557 76C81.5557 82.6274 86.9282 88 93.5557 88Z" fill="#004F1F" fill-opacity="0.2"/>
<path d="M155.111 88C161.738 88 167.111 82.6274 167.111 76C167.111 69.3726 161.738 64 155.111 64C148.483 64 143.111 69.3726 143.111 76C143.111 82.6274 148.483 88 155.111 88Z" fill="#004F1F" fill-opacity="0.2"/>
<path d="M216.667 88C223.294 88 228.667 82.6274 228.667 76C228.667 69.3726 223.294 64 216.667 64C210.04 64 204.667 69.3726 204.667 76C204.667 82.6274 210.04 88 216.667 88Z" fill="#004F1F" fill-opacity="0.2"/>
<path d="M278.222 88C284.85 88 290.222 82.6274 290.222 76C290.222 69.3726 284.85 64 278.222 64C271.595 64 266.222 69.3726 266.222 76C266.222 82.6274 271.595 88 278.222 88Z" fill="#004F1F" fill-opacity="0.2"/>
<path d="M339.778 88C346.405 88 351.778 82.6274 351.778 76C351.778 69.3726 346.405 64 339.778 64C333.15 64 327.778 69.3726 327.778 76C327.778 82.6274 333.15 88 339.778 88Z" fill="#004F1F" fill-opacity="0.2"/>
<path d="M401.333 88C407.96 88 413.333 82.6274 413.333 76C413.333 69.3726 407.96 64 401.333 64C394.706 64 389.333 69.3726 389.333 76C389.333 82.6274 394.706 88 401.333 88Z" fill="#004F1F" fill-opacity="0.2"/>
<path d="M462.889 88C469.517 88 474.889 82.6274 474.889 76C474.889 69.3726 469.517 64 462.889 64C456.262 64 450.889 69.3726 450.889 76C450.889 82.6274 456.262 88 462.889 88Z" fill="#004F1F" fill-opacity="0.2"/>
<path d="M524.444 88C531.071 88 536.444 82.6274 536.444 76C536.444 69.3726 531.071 64 524.444 64C517.816 64 512.444 69.3726 512.444 76C512.444 82.6274 517.816 88 524.444 88Z" fill="#004F1F" fill-opacity="0.2"/>
<path d="M586 88C592.627 88 598 82.6274 598 76C598 69.3726 592.627 64 586 64C579.373 64 574 69.3726 574 76C574 82.6274 579.373 88 586 88Z" fill="#004F1F" fill-opacity="0.2"/>
<path d="M32 132C38.6274 132 44 126.627 44 120C44 113.373 38.6274 108 32 108C25.3726 108 20 113.373 20 120C20 126.627 25.3726 132 32 132Z" fill="#004F1F" fill-opacity="0.2"/>
<path d="M93.5557 132C100.183 132 105.556 126.627 105.556 120C105.556 113.373 100.183 108 93.5557 108C86.9282 108 81.5557 113.373 81.5557 120C81.5557 126.627 86.9282 132 93.5557 132Z" fill="#004F1F" fill-opacity="0.2"/>
<path d="M155.111 132C161.738 132 167.111 126.627 167.111 120C167.111 113.373 161.738 108 155.111 108C148.483 108 143.111 113.373 143.111 120C143.111 126.627 148.483 132 155.111 132Z" fill="#004F1F" fill-opacity="0.2"/>
<path d="M216.667 132C223.294 132 228.667 126.627 228.667 120C228.667 113.373 223.294 108 216.667 108C210.04 108 204.667 113.373 204.667 120C204.667 126.627 210.04 132 216.667 132Z" fill="#004F1F" fill-opacity="0.2"/>
<path d="M278.222 132C284.85 132 290.222 126.627 290.222 120C290.222 113.373 284.85 108 278.222 108C271.595 108 266.222 113.373 266.222 120C266.222 126.627 271.595 132 278.222 132Z" fill="#004F1F" fill-opacity="0.2"/>
<path d="M339.778 132C346.405 132 351.778 126.627 351.778 120C351.778 113.373 346.405 108 339.778 108C333.15 108 327.778 113.373 327.778 120C327.778 126.627 333.15 132 339.778 132Z" fill="#004F1F" fill-opacity="0.2"/>
<path d="M401.333 132C407.96 132 413.333 126.627 413.333 120C413.333 113.373 407.96 108 401.333 108C394.706 108 389.333 113.373 389.333 120C389.333 126.627 394.706 132 401.333 132Z" fill="#004F1F" fill-opacity="0.2"/>
<path d="M462.889 132C469.517 132 474.889 126.627 474.889 120C474.889 113.373 469.517 108 462.889 108C456.262 108 450.889 113.373 450.889 120C450.889 126.627 456.262 132 462.889 132Z" fill="#004F1F" fill-opacity="0.2"/>
<path d="M524.444 132C531.071 132 536.444 126.627 536.444 120C536.444 113.373 531.071 108 524.444 108C517.816 108 512.444 113.373 512.444 120C512.444 126.627 517.816 132 524.444 132Z" fill="#004F1F" fill-opacity="0.2"/>
<path d="M586 132C592.627 132 598 126.627 598 120C598 113.373 592.627 108 586 108C579.373 108 574 113.373 574 120C574 126.627 579.373 132 586 132Z" fill="#004F1F" fill-opacity="0.2"/>
</svg>
